<?xml version="1.0" encoding="utf-8"?>
<!-- Generator: Adobe Illustrator 28.2.0, SVG Export Plug-In . SVG Version: 6.00 Build 0)  -->
<svg version="1.1" id="Layer_1" xmlns="http://www.w3.org/2000/svg" xmlns:xlink="http://www.w3.org/1999/xlink" x="0px" y="0px"
	 viewBox="0 0 1000 162.9" style="enable-background:new 0 0 1000 162.9;" xml:space="preserve">
<style type="text/css">
	.st0{fill-rule:evenodd;clip-rule:evenodd;}
</style>
<g>
	<path class="st0" d="M100.3,64.6c0,20.2-16.3,36.5-36.5,36.5c-20.2,0-36.5-16.3-36.5-36.5s16.3-36.5,36.5-36.5
		C84,28.1,100.3,44.4,100.3,64.6z M127.7,64.6c0,35.2-28.6,63.9-63.9,63.9c-9.8,0-19.1-2.2-27.4-6.2v33.5H0v-36.5h31
		C12.4,108.2,0,87.8,0,64.6C0,29.4,28.6,0.8,63.9,0.8C99.1,0.8,127.7,29.4,127.7,64.6z"/>
	<path class="st0" d="M798.6,32.6V14.4h18.2v18.2H798.6z M798.8,135.5V46.7h17.8v88.8H798.8z M765.2,62.1h24V46.7h-24V22.5h-17.8
		v24.2H733v15.5h14.5v49.6c0,16.6,8.7,23.7,25.2,23.7h16.7V120h-15c-5.3,0-9.1-3.5-9.1-9.4V62.1z M382.6,97.4V83h-0.1
		c0-22.3-17.8-38.9-41.9-38.9c-25.8,0-43.7,18.7-43.7,47c0,28.3,17.6,47,43.7,47c21.5,0,37.5-12.6,41.2-29.9h-19.4
		c-3,8.7-11.4,14.5-21.8,14.5c-13.2,0-22.9-9.5-25-25.4H382.6z M315.7,81.5c2.3-12.6,11.5-22.1,24.9-22.1c13.1,0,22.1,9.1,24,22.1
		H315.7z M395.6,46.6v88.8h17.8v-50c0-17.1,9.4-26,23.9-26h9.5V44.1h-7.6c-13.1,0-21.1,8.7-25.8,16.3H413V46.6H395.6z M492.5,138.1
		c-26.7,0-44.6-18.7-44.6-47.1c0-28.4,16.7-46.9,44.6-46.9c25.5,0,39.9,16.6,41.5,37.5h-18.4c-0.8-11.3-9.6-22.1-23.1-22.1
		c-16.2,0-26.2,13.1-26.2,31.5c0,19.6,10.4,31.8,26.2,31.8c8.9,0,19.7-7,21.1-14.5H533C529,126.2,512.7,138.1,492.5,138.1z
		 M628.8,97.4V83h-0.1c0-22.3-17.8-38.9-41.9-38.9c-25.8,0-43.7,18.7-43.7,47c0,28.3,17.6,47,43.7,47c21.5,0,37.5-12.6,41.2-29.9
		h-19.4c-3,8.7-11.4,14.5-21.8,14.5c-13.2,0-22.9-9.5-25-25.4H628.8z M562,81.5c2.3-12.6,11.5-22.1,24.9-22.1
		c13.1,0,22.1,9.1,24,22.1H562z M660.7,51c0,3.2,0,5.8-0.3,9.4h0.3c6.9-10.9,17.9-16.3,30.3-16.3c21.8,0,40.8,16.3,40.8,46.5
		c0,30.2-19.1,47.5-40.8,47.5c-12.9,0-23.9-5.7-30.3-16.3h-0.3c0.3,3.7,0.3,6.4,0.3,9.9V163H643V46.6h17.8V51z M686.6,122.7
		c16.2,0.1,26.8-12.9,26.8-32.1c0-19.2-10.6-31.3-26.8-31.2c-16.4,0.1-26,13.9-26,31C660.6,108.5,670.1,122.5,686.6,122.7z
		 M913.3,46.7h-19.8h-0.1L869.6,114l-23.7-67.3h-19.8l34.6,88.8h18.2L913.3,46.7z M1000,83v14.4h-67c2.1,15.8,11.8,25.4,25,25.4
		c10.4,0,18.7-5.8,21.8-14.5h19.4c-3.7,17.3-19.7,29.9-41.2,29.9c-26.1,0-43.7-18.7-43.7-47c0-28.3,17.9-47,43.7-47
		c24.2,0,41.9,16.7,41.9,38.9H1000z M958.1,59.4c-13.4,0-22.6,9.5-24.9,22.1h48.9C980.2,68.5,971.1,59.4,958.1,59.4z M291.2,59.9
		c0-21.9-18.2-37.5-39.3-37.5h-50.9v113h18.2V97.4H252C273,97.4,291.2,81.8,291.2,59.9z M272.9,59.9c0,11.1-10.9,21.6-25.2,21.6
		v-0.1h-28.4V38.3h28.4C261.9,38.3,272.9,48.8,272.9,59.9z"/>
</g>
</svg>
